<?xml version="1.0" encoding="UTF-8" standalone="no"?>
<!DOCTYPE svg PUBLIC "-//W3C//DTD SVG 1.1//EN"
 "http://www.w3.org/Graphics/SVG/1.1/DTD/svg11.dtd">
<!-- Generated by graphviz version 12.1.2 (20240928.0832)
 -->
<!-- Pages: 1 -->
<svg width="1323pt" height="468pt"
 viewBox="0.00 0.00 1323.11 467.80" xmlns="http://www.w3.org/2000/svg" xmlns:xlink="http://www.w3.org/1999/xlink">
<g id="graph0" class="graph" transform="scale(1 1) rotate(0) translate(4 463.8)">
<polygon fill="white" stroke="none" points="-4,4 -4,-463.8 1319.11,-463.8 1319.11,4 -4,4"/>
<g id="clust1" class="cluster">
<title>cluster_LeastSeriousPeople</title>
<path fill="#aaaaaa" stroke="black" d="M775.11,-16C775.11,-16 1212.11,-16 1212.11,-16 1218.11,-16 1224.11,-22 1224.11,-28 1224.11,-28 1224.11,-86.4 1224.11,-86.4 1224.11,-92.4 1218.11,-98.4 1212.11,-98.4 1212.11,-98.4 775.11,-98.4 775.11,-98.4 769.11,-98.4 763.11,-92.4 763.11,-86.4 763.11,-86.4 763.11,-28 763.11,-28 763.11,-22 769.11,-16 775.11,-16"/>
<text text-anchor="middle" x="993.61" y="-81.8" font-family="Times,serif" font-size="14.00">Least Serious People</text>
</g>
<g id="clust2" class="cluster">
<title>cluster_LessSeriousPeople</title>
<path fill="#aaaaaa" stroke="black" d="M893.11,-250C893.11,-250 1295.11,-250 1295.11,-250 1301.11,-250 1307.11,-256 1307.11,-262 1307.11,-262 1307.11,-320.4 1307.11,-320.4 1307.11,-326.4 1301.11,-332.4 1295.11,-332.4 1295.11,-332.4 893.11,-332.4 893.11,-332.4 887.11,-332.4 881.11,-326.4 881.11,-320.4 881.11,-320.4 881.11,-262 881.11,-262 881.11,-256 887.11,-250 893.11,-250"/>
<text text-anchor="middle" x="1094.11" y="-315.8" font-family="Times,serif" font-size="14.00">Less Serious People</text>
</g>
<g id="clust3" class="cluster">
<title>cluster_SeriousPeople</title>
<path fill="#aaaaaa" stroke="black" d="M349.11,-369.4C349.11,-369.4 831.11,-369.4 831.11,-369.4 837.11,-369.4 843.11,-375.4 843.11,-381.4 843.11,-381.4 843.11,-439.8 843.11,-439.8 843.11,-445.8 837.11,-451.8 831.11,-451.8 831.11,-451.8 349.11,-451.8 349.11,-451.8 343.11,-451.8 337.11,-445.8 337.11,-439.8 337.11,-439.8 337.11,-381.4 337.11,-381.4 337.11,-375.4 343.11,-369.4 349.11,-369.4"/>
<text text-anchor="middle" x="590.11" y="-435.2" font-family="Times,serif" font-size="14.00">Serious People</text>
</g>
<!-- CFO -->
<g id="node1" class="node">
<title>CFO</title>
<path fill="#e8f0fe" stroke="black" d="M196.42,-299.6C196.42,-299.6 73.81,-299.6 73.81,-299.6 67.81,-299.6 61.81,-293.6 61.81,-287.6 61.81,-287.6 61.81,-270 61.81,-270 61.81,-264 67.81,-258 73.81,-258 73.81,-258 196.42,-258 196.42,-258 202.42,-258 208.42,-264 208.42,-270 208.42,-270 208.42,-287.6 208.42,-287.6 208.42,-293.6 202.42,-299.6 196.42,-299.6"/>
<text text-anchor="middle" x="135.11" y="-283" font-family="Times,serif" font-size="14.00">Aimee Clements</text>
<text text-anchor="middle" x="135.11" y="-266.2" font-family="Times,serif" font-size="14.00">Chief Financial Officer</text>
</g>
<!-- EFM -->
<g id="node4" class="node">
<title>EFM</title>
<path fill="#e8f0fe" stroke="black" d="M106.22,-185C106.22,-185 12,-185 12,-185 6,-185 0,-179 0,-173 0,-173 0,-155.4 0,-155.4 0,-149.4 6,-143.4 12,-143.4 12,-143.4 106.22,-143.4 106.22,-143.4 112.22,-143.4 118.22,-149.4 118.22,-155.4 118.22,-155.4 118.22,-173 118.22,-173 118.22,-179 112.22,-185 106.22,-185"/>
<text text-anchor="middle" x="59.11" y="-168.4" font-family="Times,serif" font-size="14.00">Alyssa Figueroa</text>
<text text-anchor="middle" x="59.11" y="-151.6" font-family="Times,serif" font-size="14.00">Efficient Manager</text>
</g>
<!-- CFO&#45;&gt;EFM -->
<g id="edge8" class="edge">
<title>CFO&#45;&gt;EFM</title>
<path fill="none" stroke="#666666" d="M121.53,-257.67C109.69,-240.14 92.38,-214.49 78.99,-194.65"/>
<polygon fill="#666666" stroke="#666666" points="81.92,-192.74 73.43,-186.41 76.12,-196.66 81.92,-192.74"/>
</g>
<!-- MEFM -->
<g id="node6" class="node">
<title>MEFM</title>
<path fill="#e8f0fe" stroke="black" d="M276.14,-185C276.14,-185 148.09,-185 148.09,-185 142.09,-185 136.09,-179 136.09,-173 136.09,-173 136.09,-155.4 136.09,-155.4 136.09,-149.4 142.09,-143.4 148.09,-143.4 148.09,-143.4 276.14,-143.4 276.14,-143.4 282.14,-143.4 288.14,-149.4 288.14,-155.4 288.14,-155.4 288.14,-173 288.14,-173 288.14,-179 282.14,-185 276.14,-185"/>
<text text-anchor="middle" x="212.11" y="-168.4" font-family="Times,serif" font-size="14.00">Carole Santos</text>
<text text-anchor="middle" x="212.11" y="-151.6" font-family="Times,serif" font-size="14.00">More Efficient Manager</text>
</g>
<!-- CFO&#45;&gt;MEFM -->
<g id="edge9" class="edge">
<title>CFO&#45;&gt;MEFM</title>
<path fill="none" stroke="#666666" d="M148.88,-257.67C160.87,-240.14 178.41,-214.49 191.98,-194.65"/>
<polygon fill="#666666" stroke="#666666" points="194.86,-196.64 197.61,-186.41 189.08,-192.68 194.86,-196.64"/>
</g>
<!-- CPO -->
<g id="node2" class="node">
<title>CPO</title>
<path fill="#e8f0fe" stroke="black" d="M347.42,-299.6C347.42,-299.6 238.8,-299.6 238.8,-299.6 232.8,-299.6 226.8,-293.6 226.8,-287.6 226.8,-287.6 226.8,-270 226.8,-270 226.8,-264 232.8,-258 238.8,-258 238.8,-258 347.42,-258 347.42,-258 353.42,-258 359.42,-264 359.42,-270 359.42,-270 359.42,-287.6 359.42,-287.6 359.42,-293.6 353.42,-299.6 347.42,-299.6"/>
<text text-anchor="middle" x="293.11" y="-283" font-family="Times,serif" font-size="14.00">Dorothea Mcgee</text>
<text text-anchor="middle" x="293.11" y="-266.2" font-family="Times,serif" font-size="14.00">Chief People Officer</text>
</g>
<!-- CTO -->
<g id="node3" class="node">
<title>CTO</title>
<path fill="#e8f0fe" stroke="black" d="M546.91,-299.6C546.91,-299.6 389.31,-299.6 389.31,-299.6 383.31,-299.6 377.31,-293.6 377.31,-287.6 377.31,-287.6 377.31,-270 377.31,-270 377.31,-264 383.31,-258 389.31,-258 389.31,-258 546.91,-258 546.91,-258 552.91,-258 558.91,-264 558.91,-270 558.91,-270 558.91,-287.6 558.91,-287.6 558.91,-293.6 552.91,-299.6 546.91,-299.6"/>
<text text-anchor="middle" x="468.11" y="-283" font-family="Times,serif" font-size="14.00">Marcel Kim</text>
<text text-anchor="middle" x="468.11" y="-266.2" font-family="Times,serif" font-size="14.00">Chief Transformation Officer</text>
</g>
<!-- GOP -->
<g id="node5" class="node">
<title>GOP</title>
<path fill="#e8f0fe" stroke="black" d="M697.03,-299.6C697.03,-299.6 589.19,-299.6 589.19,-299.6 583.19,-299.6 577.19,-293.6 577.19,-287.6 577.19,-287.6 577.19,-270 577.19,-270 577.19,-264 583.19,-258 589.19,-258 589.19,-258 697.03,-258 697.03,-258 703.03,-258 709.03,-264 709.03,-270 709.03,-270 709.03,-287.6 709.03,-287.6 709.03,-293.6 703.03,-299.6 697.03,-299.6"/>
<text text-anchor="middle" x="643.11" y="-283" font-family="Times,serif" font-size="14.00">Conrad Cummings</text>
<text text-anchor="middle" x="643.11" y="-266.2" font-family="Times,serif" font-size="14.00">Global Offer Partner</text>
</g>
<!-- NSG -->
<g id="node7" class="node">
<title>NSG</title>
<path fill="#e8f0fe" stroke="black" d="M1136.84,-185C1136.84,-185 1043.38,-185 1043.38,-185 1037.38,-185 1031.38,-179 1031.38,-173 1031.38,-173 1031.38,-155.4 1031.38,-155.4 1031.38,-149.4 1037.38,-143.4 1043.38,-143.4 1043.38,-143.4 1136.84,-143.4 1136.84,-143.4 1142.84,-143.4 1148.84,-149.4 1148.84,-155.4 1148.84,-155.4 1148.84,-173 1148.84,-173 1148.84,-179 1142.84,-185 1136.84,-185"/>
<text text-anchor="middle" x="1090.11" y="-168.4" font-family="Times,serif" font-size="14.00">Esmeralda French</text>
<text text-anchor="middle" x="1090.11" y="-151.6" font-family="Times,serif" font-size="14.00">Not Serious Guy</text>
</g>
<!-- AOANSG -->
<g id="node10" class="node">
<title>AOANSG</title>
<path fill="#e8f0fe" stroke="black" d="M1203.74,-65.6C1203.74,-65.6 976.49,-65.6 976.49,-65.6 970.49,-65.6 964.49,-59.6 964.49,-53.6 964.49,-53.6 964.49,-36 964.49,-36 964.49,-30 970.49,-24 976.49,-24 976.49,-24 1203.74,-24 1203.74,-24 1209.74,-24 1215.74,-30 1215.74,-36 1215.74,-36 1215.74,-53.6 1215.74,-53.6 1215.74,-59.6 1209.74,-65.6 1203.74,-65.6"/>
<text text-anchor="middle" x="1090.11" y="-49" font-family="Times,serif" font-size="14.00">Edison Berg</text>
<text text-anchor="middle" x="1090.11" y="-32.2" font-family="Times,serif" font-size="14.00">Another One Absolutely Not Serious Guy</text>
</g>
<!-- NSG&#45;&gt;AOANSG -->
<g id="edge10" class="edge">
<title>NSG&#45;&gt;AOANSG</title>
<path fill="none" stroke="#666666" d="M1090.11,-143.02C1090.11,-133.56 1090.11,-121.71 1090.11,-109.57"/>
<polygon fill="#666666" stroke="#666666" points="1093.61,-109.91 1090.11,-99.91 1086.61,-109.91 1093.61,-109.91"/>
</g>
<!-- SOP -->
<g id="node8" class="node">
<title>SOP</title>
<path fill="#e8f0fe" stroke="black" d="M858.86,-299.6C858.86,-299.6 739.36,-299.6 739.36,-299.6 733.36,-299.6 727.36,-293.6 727.36,-287.6 727.36,-287.6 727.36,-270 727.36,-270 727.36,-264 733.36,-258 739.36,-258 739.36,-258 858.86,-258 858.86,-258 864.86,-258 870.86,-264 870.86,-270 870.86,-270 870.86,-287.6 870.86,-287.6 870.86,-293.6 864.86,-299.6 858.86,-299.6"/>
<text text-anchor="middle" x="799.11" y="-283" font-family="Times,serif" font-size="14.00">Liza Howard</text>
<text text-anchor="middle" x="799.11" y="-266.2" font-family="Times,serif" font-size="14.00">Strategic Offer Partner</text>
</g>
<!-- ANSG -->
<g id="node9" class="node">
<title>ANSG</title>
<path fill="#e8f0fe" stroke="black" d="M934.64,-65.6C934.64,-65.6 783.59,-65.6 783.59,-65.6 777.59,-65.6 771.59,-59.6 771.59,-53.6 771.59,-53.6 771.59,-36 771.59,-36 771.59,-30 777.59,-24 783.59,-24 783.59,-24 934.64,-24 934.64,-24 940.64,-24 946.64,-30 946.64,-36 946.64,-36 946.64,-53.6 946.64,-53.6 946.64,-59.6 940.64,-65.6 934.64,-65.6"/>
<text text-anchor="middle" x="859.11" y="-49" font-family="Times,serif" font-size="14.00">Gavin Singh</text>
<text text-anchor="middle" x="859.11" y="-32.2" font-family="Times,serif" font-size="14.00">Absolutely Not Serious Guy</text>
</g>
<!-- CSG -->
<g id="node11" class="node">
<title>CSG</title>
<path fill="#e8f0fe" stroke="black" d="M997.22,-299.6C997.22,-299.6 901.01,-299.6 901.01,-299.6 895.01,-299.6 889.01,-293.6 889.01,-287.6 889.01,-287.6 889.01,-270 889.01,-270 889.01,-264 895.01,-258 901.01,-258 901.01,-258 997.22,-258 997.22,-258 1003.22,-258 1009.22,-264 1009.22,-270 1009.22,-270 1009.22,-287.6 1009.22,-287.6 1009.22,-293.6 1003.22,-299.6 997.22,-299.6"/>
<text text-anchor="middle" x="949.11" y="-283" font-family="Times,serif" font-size="14.00">Olive Forbes</text>
<text text-anchor="middle" x="949.11" y="-266.2" font-family="Times,serif" font-size="14.00">Chief Serious Guy</text>
</g>
<!-- CSecG -->
<g id="node12" class="node">
<title>CSecG</title>
<path fill="#e8f0fe" stroke="black" d="M1140.55,-299.6C1140.55,-299.6 1039.68,-299.6 1039.68,-299.6 1033.68,-299.6 1027.68,-293.6 1027.68,-287.6 1027.68,-287.6 1027.68,-270 1027.68,-270 1027.68,-264 1033.68,-258 1039.68,-258 1039.68,-258 1140.55,-258 1140.55,-258 1146.55,-258 1152.55,-264 1152.55,-270 1152.55,-270 1152.55,-287.6 1152.55,-287.6 1152.55,-293.6 1146.55,-299.6 1140.55,-299.6"/>
<text text-anchor="middle" x="1090.11" y="-283" font-family="Times,serif" font-size="14.00">Jorge Edwards</text>
<text text-anchor="middle" x="1090.11" y="-266.2" font-family="Times,serif" font-size="14.00">Chief Secutiry Guy</text>
</g>
<!-- CSecG&#45;&gt;NSG -->
<g id="edge7" class="edge">
<title>CSecG&#45;&gt;NSG</title>
<path fill="none" stroke="#666666" d="M1090.11,-250C1090.11,-233.81 1090.11,-213.34 1090.11,-196.57"/>
<polygon fill="#666666" stroke="#666666" points="1093.61,-196.67 1090.11,-186.67 1086.61,-196.67 1093.61,-196.67"/>
</g>
<!-- CSoftG -->
<g id="node13" class="node">
<title>CSoftG</title>
<path fill="#e8f0fe" stroke="black" d="M1287.49,-299.6C1287.49,-299.6 1182.74,-299.6 1182.74,-299.6 1176.74,-299.6 1170.74,-293.6 1170.74,-287.6 1170.74,-287.6 1170.74,-270 1170.74,-270 1170.74,-264 1176.74,-258 1182.74,-258 1182.74,-258 1287.49,-258 1287.49,-258 1293.49,-258 1299.49,-264 1299.49,-270 1299.49,-270 1299.49,-287.6 1299.49,-287.6 1299.49,-293.6 1293.49,-299.6 1287.49,-299.6"/>
<text text-anchor="middle" x="1235.11" y="-283" font-family="Times,serif" font-size="14.00">Normand Knight</text>
<text text-anchor="middle" x="1235.11" y="-266.2" font-family="Times,serif" font-size="14.00">Chief Software Guy</text>
</g>
<!-- CEO -->
<g id="node14" class="node">
<title>CEO</title>
<path fill="#e8f0fe" stroke="black" d="M441.39,-419C441.39,-419 356.84,-419 356.84,-419 350.84,-419 344.84,-413 344.84,-407 344.84,-407 344.84,-389.4 344.84,-389.4 344.84,-383.4 350.84,-377.4 356.84,-377.4 356.84,-377.4 441.39,-377.4 441.39,-377.4 447.39,-377.4 453.39,-383.4 453.39,-389.4 453.39,-389.4 453.39,-407 453.39,-407 453.39,-413 447.39,-419 441.39,-419"/>
<text text-anchor="middle" x="399.11" y="-402.4" font-family="Times,serif" font-size="14.00">Renato Fleming</text>
<text text-anchor="middle" x="399.11" y="-385.6" font-family="Times,serif" font-size="14.00">Founder &amp; CEO</text>
</g>
<!-- RMP -->
<g id="node15" class="node">
<title>RMP</title>
<path fill="#e8f0fe" stroke="black" d="M628.7,-419C628.7,-419 483.53,-419 483.53,-419 477.53,-419 471.53,-413 471.53,-407 471.53,-407 471.53,-389.4 471.53,-389.4 471.53,-383.4 477.53,-377.4 483.53,-377.4 483.53,-377.4 628.7,-377.4 628.7,-377.4 634.7,-377.4 640.7,-383.4 640.7,-389.4 640.7,-389.4 640.7,-407 640.7,-407 640.7,-413 634.7,-419 628.7,-419"/>
<text text-anchor="middle" x="556.11" y="-402.4" font-family="Times,serif" font-size="14.00">Naomi Walls</text>
<text text-anchor="middle" x="556.11" y="-385.6" font-family="Times,serif" font-size="14.00">Revenue Managing Partner</text>
</g>
<!-- RMP&#45;&gt;CFO -->
<g id="edge1" class="edge">
<title>RMP&#45;&gt;CFO</title>
<path fill="none" stroke="#666666" d="M462.11,-369.4C355.05,-345.57 320.85,-370.8 218.11,-332.4 201.23,-326.09 184.15,-316.03 169.91,-306.4"/>
<polygon fill="#666666" stroke="#666666" points="171.98,-303.57 161.78,-300.71 167.97,-309.31 171.98,-303.57"/>
</g>
<!-- RMP&#45;&gt;CPO -->
<g id="edge2" class="edge">
<title>RMP&#45;&gt;CPO</title>
<path fill="none" stroke="#666666" d="M467.92,-369.4C428.31,-356.39 386.41,-341.73 368.11,-332.4 354,-325.2 339.52,-315.64 327.09,-306.65"/>
<polygon fill="#666666" stroke="#666666" points="329.35,-303.97 319.24,-300.83 325.19,-309.59 329.35,-303.97"/>
</g>
<!-- RMP&#45;&gt;CTO -->
<g id="edge3" class="edge">
<title>RMP&#45;&gt;CTO</title>
<path fill="none" stroke="#666666" d="M535.28,-369.4C521.61,-351.18 503.78,-327.39 489.93,-308.91"/>
<polygon fill="#666666" stroke="#666666" points="492.75,-306.83 483.95,-300.93 487.15,-311.03 492.75,-306.83"/>
</g>
<!-- RMP&#45;&gt;GOP -->
<g id="edge5" class="edge">
<title>RMP&#45;&gt;GOP</title>
<path fill="none" stroke="#666666" d="M576.71,-369.4C590.22,-351.18 607.85,-327.39 621.54,-308.91"/>
<polygon fill="#666666" stroke="#666666" points="624.31,-311.05 627.45,-300.93 618.68,-306.88 624.31,-311.05"/>
</g>
<!-- RMP&#45;&gt;SOP -->
<g id="edge4" class="edge">
<title>RMP&#45;&gt;SOP</title>
<path fill="none" stroke="#666666" d="M634.51,-369.4C661.51,-358.9 691.61,-346.14 718.11,-332.4 732.85,-324.76 748.3,-315.17 761.7,-306.27"/>
<polygon fill="#666666" stroke="#666666" points="763.48,-309.3 769.81,-300.8 759.56,-303.49 763.48,-309.3"/>
</g>
<!-- RMP&#45;&gt;CSecG -->
<g id="edge6" class="edge">
<title>RMP&#45;&gt;CSecG</title>
<path fill="none" stroke="#666666" d="M650.11,-369.4C807.63,-338.47 862.04,-388.71 1007.48,-336.35"/>
<polygon fill="#666666" stroke="#666666" points="1008.54,-339.69 1016.69,-332.93 1006.1,-333.13 1008.54,-339.69"/>
</g>
<!-- OMP -->
<g id="node16" class="node">
<title>OMP</title>
<path fill="#e8f0fe" stroke="black" d="M823.2,-419C823.2,-419 671.03,-419 671.03,-419 665.03,-419 659.03,-413 659.03,-407 659.03,-407 659.03,-389.4 659.03,-389.4 659.03,-383.4 665.03,-377.4 671.03,-377.4 671.03,-377.4 823.2,-377.4 823.2,-377.4 829.2,-377.4 835.2,-383.4 835.2,-389.4 835.2,-389.4 835.2,-407 835.2,-407 835.2,-413 829.2,-419 823.2,-419"/>
<text text-anchor="middle" x="747.11" y="-402.4" font-family="Times,serif" font-size="14.00">Robbie Whitehead</text>
<text text-anchor="middle" x="747.11" y="-385.6" font-family="Times,serif" font-size="14.00">Operation Managing Partner</text>
</g>
</g>
</svg>
