<?xml version="1.0" encoding="UTF-8" standalone="no"?>
<!DOCTYPE svg PUBLIC "-//W3C//DTD SVG 1.1//EN"
 "http://www.w3.org/Graphics/SVG/1.1/DTD/svg11.dtd">
<!-- Generated by graphviz version 12.1.2 (20240928.0832)
 -->
<!-- Pages: 1 -->
<svg width="1398pt" height="266pt"
 viewBox="0.00 0.00 1398.11 266.40" xmlns="http://www.w3.org/2000/svg" xmlns:xlink="http://www.w3.org/1999/xlink">
<g id="graph0" class="graph" transform="scale(1 1) rotate(0) translate(4 262.4)">
<polygon fill="white" stroke="none" points="-4,4 -4,-262.4 1394.11,-262.4 1394.11,4 -4,4"/>
<g id="clust1" class="cluster">
<title>cluster_LessSeriousPeople</title>
<path fill="#aaaaaa" stroke="black" d="M968.11,-77.6C968.11,-77.6 1370.11,-77.6 1370.11,-77.6 1376.11,-77.6 1382.11,-83.6 1382.11,-89.6 1382.11,-89.6 1382.11,-148 1382.11,-148 1382.11,-154 1376.11,-160 1370.11,-160 1370.11,-160 968.11,-160 968.11,-160 962.11,-160 956.11,-154 956.11,-148 956.11,-148 956.11,-89.6 956.11,-89.6 956.11,-83.6 962.11,-77.6 968.11,-77.6"/>
<text text-anchor="middle" x="1169.11" y="-143.4" font-family="Times,serif" font-size="14.00">Less Serious People</text>
</g>
<g id="clust2" class="cluster">
<title>cluster_SeriousPeople</title>
<path fill="#aaaaaa" stroke="black" d="M423.11,-168C423.11,-168 905.11,-168 905.11,-168 911.11,-168 917.11,-174 917.11,-180 917.11,-180 917.11,-238.4 917.11,-238.4 917.11,-244.4 911.11,-250.4 905.11,-250.4 905.11,-250.4 423.11,-250.4 423.11,-250.4 417.11,-250.4 411.11,-244.4 411.11,-238.4 411.11,-238.4 411.11,-180 411.11,-180 411.11,-174 417.11,-168 423.11,-168"/>
<text text-anchor="middle" x="664.11" y="-233.8" font-family="Times,serif" font-size="14.00">Serious People</text>
</g>
<!-- CFO -->
<g id="node1" class="node">
<title>CFO</title>
<path fill="#e8f0fe" stroke="black" d="M271.42,-127.2C271.42,-127.2 148.81,-127.2 148.81,-127.2 142.81,-127.2 136.81,-121.2 136.81,-115.2 136.81,-115.2 136.81,-97.6 136.81,-97.6 136.81,-91.6 142.81,-85.6 148.81,-85.6 148.81,-85.6 271.42,-85.6 271.42,-85.6 277.42,-85.6 283.42,-91.6 283.42,-97.6 283.42,-97.6 283.42,-115.2 283.42,-115.2 283.42,-121.2 277.42,-127.2 271.42,-127.2"/>
<text text-anchor="middle" x="210.11" y="-110.6" font-family="Times,serif" font-size="14.00">Aimee Clements</text>
<text text-anchor="middle" x="210.11" y="-93.8" font-family="Times,serif" font-size="14.00">Chief Financial Officer</text>
</g>
<!-- EFM -->
<g id="node4" class="node">
<title>EFM</title>
<path fill="#e8f0fe" stroke="black" d="M106.22,-49.6C106.22,-49.6 12,-49.6 12,-49.6 6,-49.6 0,-43.6 0,-37.6 0,-37.6 0,-20 0,-20 0,-14 6,-8 12,-8 12,-8 106.22,-8 106.22,-8 112.22,-8 118.22,-14 118.22,-20 118.22,-20 118.22,-37.6 118.22,-37.6 118.22,-43.6 112.22,-49.6 106.22,-49.6"/>
<text text-anchor="middle" x="59.11" y="-33" font-family="Times,serif" font-size="14.00">Alyssa Figueroa</text>
<text text-anchor="middle" x="59.11" y="-16.2" font-family="Times,serif" font-size="14.00">Efficient Manager</text>
</g>
<!-- CFO&#45;&gt;EFM -->
<g id="edge8" class="edge">
<title>CFO&#45;&gt;EFM</title>
<path fill="none" stroke="#666666" d="M169.65,-85.14C151.21,-75.91 129.19,-64.88 109.67,-55.11"/>
<polygon fill="#666666" stroke="#666666" points="111.29,-52.01 100.78,-50.66 108.16,-58.27 111.29,-52.01"/>
</g>
<!-- LEFM -->
<g id="node6" class="node">
<title>LEFM</title>
<path fill="#e8f0fe" stroke="black" d="M271.81,-49.6C271.81,-49.6 148.42,-49.6 148.42,-49.6 142.42,-49.6 136.42,-43.6 136.42,-37.6 136.42,-37.6 136.42,-20 136.42,-20 136.42,-14 142.42,-8 148.42,-8 148.42,-8 271.81,-8 271.81,-8 277.81,-8 283.81,-14 283.81,-20 283.81,-20 283.81,-37.6 283.81,-37.6 283.81,-43.6 277.81,-49.6 271.81,-49.6"/>
<text text-anchor="middle" x="210.11" y="-33" font-family="Times,serif" font-size="14.00">Ola Meadows</text>
<text text-anchor="middle" x="210.11" y="-16.2" font-family="Times,serif" font-size="14.00">Less Efficient Manager</text>
</g>
<!-- CFO&#45;&gt;LEFM -->
<g id="edge10" class="edge">
<title>CFO&#45;&gt;LEFM</title>
<path fill="none" stroke="#666666" d="M210.11,-85.14C210.11,-77.79 210.11,-69.31 210.11,-61.23"/>
<polygon fill="#666666" stroke="#666666" points="213.61,-61.37 210.11,-51.37 206.61,-61.37 213.61,-61.37"/>
</g>
<!-- MEFM -->
<g id="node7" class="node">
<title>MEFM</title>
<path fill="#e8f0fe" stroke="black" d="M442.14,-49.6C442.14,-49.6 314.09,-49.6 314.09,-49.6 308.09,-49.6 302.09,-43.6 302.09,-37.6 302.09,-37.6 302.09,-20 302.09,-20 302.09,-14 308.09,-8 314.09,-8 314.09,-8 442.14,-8 442.14,-8 448.14,-8 454.14,-14 454.14,-20 454.14,-20 454.14,-37.6 454.14,-37.6 454.14,-43.6 448.14,-49.6 442.14,-49.6"/>
<text text-anchor="middle" x="378.11" y="-33" font-family="Times,serif" font-size="14.00">Carole Santos</text>
<text text-anchor="middle" x="378.11" y="-16.2" font-family="Times,serif" font-size="14.00">More Efficient Manager</text>
</g>
<!-- CFO&#45;&gt;MEFM -->
<g id="edge9" class="edge">
<title>CFO&#45;&gt;MEFM</title>
<path fill="none" stroke="#666666" d="M255.13,-85.14C275.93,-75.78 300.83,-64.58 322.76,-54.71"/>
<polygon fill="#666666" stroke="#666666" points="324.2,-57.9 331.88,-50.61 321.32,-51.52 324.2,-57.9"/>
</g>
<!-- CPO -->
<g id="node2" class="node">
<title>CPO</title>
<path fill="#e8f0fe" stroke="black" d="M422.42,-127.2C422.42,-127.2 313.8,-127.2 313.8,-127.2 307.8,-127.2 301.8,-121.2 301.8,-115.2 301.8,-115.2 301.8,-97.6 301.8,-97.6 301.8,-91.6 307.8,-85.6 313.8,-85.6 313.8,-85.6 422.42,-85.6 422.42,-85.6 428.42,-85.6 434.42,-91.6 434.42,-97.6 434.42,-97.6 434.42,-115.2 434.42,-115.2 434.42,-121.2 428.42,-127.2 422.42,-127.2"/>
<text text-anchor="middle" x="368.11" y="-110.6" font-family="Times,serif" font-size="14.00">Dorothea Mcgee</text>
<text text-anchor="middle" x="368.11" y="-93.8" font-family="Times,serif" font-size="14.00">Chief People Officer</text>
</g>
<!-- CTO -->
<g id="node3" class="node">
<title>CTO</title>
<path fill="#e8f0fe" stroke="black" d="M621.91,-127.2C621.91,-127.2 464.31,-127.2 464.31,-127.2 458.31,-127.2 452.31,-121.2 452.31,-115.2 452.31,-115.2 452.31,-97.6 452.31,-97.6 452.31,-91.6 458.31,-85.6 464.31,-85.6 464.31,-85.6 621.91,-85.6 621.91,-85.6 627.91,-85.6 633.91,-91.6 633.91,-97.6 633.91,-97.6 633.91,-115.2 633.91,-115.2 633.91,-121.2 627.91,-127.2 621.91,-127.2"/>
<text text-anchor="middle" x="543.11" y="-110.6" font-family="Times,serif" font-size="14.00">Marcel Kim</text>
<text text-anchor="middle" x="543.11" y="-93.8" font-family="Times,serif" font-size="14.00">Chief Transformation Officer</text>
</g>
<!-- GOP -->
<g id="node5" class="node">
<title>GOP</title>
<path fill="#e8f0fe" stroke="black" d="M772.03,-127.2C772.03,-127.2 664.19,-127.2 664.19,-127.2 658.19,-127.2 652.19,-121.2 652.19,-115.2 652.19,-115.2 652.19,-97.6 652.19,-97.6 652.19,-91.6 658.19,-85.6 664.19,-85.6 664.19,-85.6 772.03,-85.6 772.03,-85.6 778.03,-85.6 784.03,-91.6 784.03,-97.6 784.03,-97.6 784.03,-115.2 784.03,-115.2 784.03,-121.2 778.03,-127.2 772.03,-127.2"/>
<text text-anchor="middle" x="718.11" y="-110.6" font-family="Times,serif" font-size="14.00">Conrad Cummings</text>
<text text-anchor="middle" x="718.11" y="-93.8" font-family="Times,serif" font-size="14.00">Global Offer Partner</text>
</g>
<!-- NSG -->
<g id="node8" class="node">
<title>NSG</title>
<path fill="#e8f0fe" stroke="black" d="M1211.84,-49.6C1211.84,-49.6 1118.38,-49.6 1118.38,-49.6 1112.38,-49.6 1106.38,-43.6 1106.38,-37.6 1106.38,-37.6 1106.38,-20 1106.38,-20 1106.38,-14 1112.38,-8 1118.38,-8 1118.38,-8 1211.84,-8 1211.84,-8 1217.84,-8 1223.84,-14 1223.84,-20 1223.84,-20 1223.84,-37.6 1223.84,-37.6 1223.84,-43.6 1217.84,-49.6 1211.84,-49.6"/>
<text text-anchor="middle" x="1165.11" y="-33" font-family="Times,serif" font-size="14.00">Esmeralda French</text>
<text text-anchor="middle" x="1165.11" y="-16.2" font-family="Times,serif" font-size="14.00">Not Serious Guy</text>
</g>
<!-- SOP -->
<g id="node9" class="node">
<title>SOP</title>
<path fill="#e8f0fe" stroke="black" d="M933.86,-127.2C933.86,-127.2 814.36,-127.2 814.36,-127.2 808.36,-127.2 802.36,-121.2 802.36,-115.2 802.36,-115.2 802.36,-97.6 802.36,-97.6 802.36,-91.6 808.36,-85.6 814.36,-85.6 814.36,-85.6 933.86,-85.6 933.86,-85.6 939.86,-85.6 945.86,-91.6 945.86,-97.6 945.86,-97.6 945.86,-115.2 945.86,-115.2 945.86,-121.2 939.86,-127.2 933.86,-127.2"/>
<text text-anchor="middle" x="874.11" y="-110.6" font-family="Times,serif" font-size="14.00">Liza Howard</text>
<text text-anchor="middle" x="874.11" y="-93.8" font-family="Times,serif" font-size="14.00">Strategic Offer Partner</text>
</g>
<!-- CSG -->
<g id="node10" class="node">
<title>CSG</title>
<path fill="#e8f0fe" stroke="black" d="M1072.22,-127.2C1072.22,-127.2 976.01,-127.2 976.01,-127.2 970.01,-127.2 964.01,-121.2 964.01,-115.2 964.01,-115.2 964.01,-97.6 964.01,-97.6 964.01,-91.6 970.01,-85.6 976.01,-85.6 976.01,-85.6 1072.22,-85.6 1072.22,-85.6 1078.22,-85.6 1084.22,-91.6 1084.22,-97.6 1084.22,-97.6 1084.22,-115.2 1084.22,-115.2 1084.22,-121.2 1078.22,-127.2 1072.22,-127.2"/>
<text text-anchor="middle" x="1024.11" y="-110.6" font-family="Times,serif" font-size="14.00">Olive Forbes</text>
<text text-anchor="middle" x="1024.11" y="-93.8" font-family="Times,serif" font-size="14.00">Chief Serious Guy</text>
</g>
<!-- CSecG -->
<g id="node11" class="node">
<title>CSecG</title>
<path fill="#e8f0fe" stroke="black" d="M1215.55,-127.2C1215.55,-127.2 1114.68,-127.2 1114.68,-127.2 1108.68,-127.2 1102.68,-121.2 1102.68,-115.2 1102.68,-115.2 1102.68,-97.6 1102.68,-97.6 1102.68,-91.6 1108.68,-85.6 1114.68,-85.6 1114.68,-85.6 1215.55,-85.6 1215.55,-85.6 1221.55,-85.6 1227.55,-91.6 1227.55,-97.6 1227.55,-97.6 1227.55,-115.2 1227.55,-115.2 1227.55,-121.2 1221.55,-127.2 1215.55,-127.2"/>
<text text-anchor="middle" x="1165.11" y="-110.6" font-family="Times,serif" font-size="14.00">Jorge Edwards</text>
<text text-anchor="middle" x="1165.11" y="-93.8" font-family="Times,serif" font-size="14.00">Chief Secutiry Guy</text>
</g>
<!-- CSecG&#45;&gt;NSG -->
<g id="edge7" class="edge">
<title>CSecG&#45;&gt;NSG</title>
<path fill="none" stroke="#666666" d="M1165.11,-77.6C1165.11,-72.27 1165.11,-66.66 1165.11,-61.23"/>
<polygon fill="#666666" stroke="#666666" points="1168.61,-61.37 1165.11,-51.37 1161.61,-61.37 1168.61,-61.37"/>
</g>
<!-- CSoftG -->
<g id="node12" class="node">
<title>CSoftG</title>
<path fill="#e8f0fe" stroke="black" d="M1362.49,-127.2C1362.49,-127.2 1257.74,-127.2 1257.74,-127.2 1251.74,-127.2 1245.74,-121.2 1245.74,-115.2 1245.74,-115.2 1245.74,-97.6 1245.74,-97.6 1245.74,-91.6 1251.74,-85.6 1257.74,-85.6 1257.74,-85.6 1362.49,-85.6 1362.49,-85.6 1368.49,-85.6 1374.49,-91.6 1374.49,-97.6 1374.49,-97.6 1374.49,-115.2 1374.49,-115.2 1374.49,-121.2 1368.49,-127.2 1362.49,-127.2"/>
<text text-anchor="middle" x="1310.11" y="-110.6" font-family="Times,serif" font-size="14.00">Normand Knight</text>
<text text-anchor="middle" x="1310.11" y="-93.8" font-family="Times,serif" font-size="14.00">Chief Software Guy</text>
</g>
<!-- CEO -->
<g id="node13" class="node">
<title>CEO</title>
<path fill="#e8f0fe" stroke="black" d="M515.39,-217.6C515.39,-217.6 430.84,-217.6 430.84,-217.6 424.84,-217.6 418.84,-211.6 418.84,-205.6 418.84,-205.6 418.84,-188 418.84,-188 418.84,-182 424.84,-176 430.84,-176 430.84,-176 515.39,-176 515.39,-176 521.39,-176 527.39,-182 527.39,-188 527.39,-188 527.39,-205.6 527.39,-205.6 527.39,-211.6 521.39,-217.6 515.39,-217.6"/>
<text text-anchor="middle" x="473.11" y="-201" font-family="Times,serif" font-size="14.00">Renato Fleming</text>
<text text-anchor="middle" x="473.11" y="-184.2" font-family="Times,serif" font-size="14.00">Founder &amp; CEO</text>
</g>
<!-- RMP -->
<g id="node14" class="node">
<title>RMP</title>
<path fill="#e8f0fe" stroke="black" d="M702.7,-217.6C702.7,-217.6 557.53,-217.6 557.53,-217.6 551.53,-217.6 545.53,-211.6 545.53,-205.6 545.53,-205.6 545.53,-188 545.53,-188 545.53,-182 551.53,-176 557.53,-176 557.53,-176 702.7,-176 702.7,-176 708.7,-176 714.7,-182 714.7,-188 714.7,-188 714.7,-205.6 714.7,-205.6 714.7,-211.6 708.7,-217.6 702.7,-217.6"/>
<text text-anchor="middle" x="630.11" y="-201" font-family="Times,serif" font-size="14.00">Naomi Walls</text>
<text text-anchor="middle" x="630.11" y="-184.2" font-family="Times,serif" font-size="14.00">Revenue Managing Partner</text>
</g>
<!-- RMP&#45;&gt;CFO -->
<g id="edge1" class="edge">
<title>RMP&#45;&gt;CFO</title>
<path fill="none" stroke="#666666" d="M536.11,-168C482.78,-159.38 344.75,-175.91 293.11,-160 275.33,-154.52 257.62,-144.16 243.17,-134.07"/>
<polygon fill="#666666" stroke="#666666" points="245.54,-131.47 235.39,-128.42 241.43,-137.13 245.54,-131.47"/>
</g>
<!-- RMP&#45;&gt;CPO -->
<g id="edge2" class="edge">
<title>RMP&#45;&gt;CPO</title>
<path fill="none" stroke="#666666" d="M536.11,-168C495.35,-160.3 482.1,-174.18 443.11,-160 427.36,-154.27 411.86,-144.34 399.08,-134.64"/>
<polygon fill="#666666" stroke="#666666" points="401.49,-132.09 391.48,-128.62 397.14,-137.57 401.49,-132.09"/>
</g>
<!-- RMP&#45;&gt;CTO -->
<g id="edge3" class="edge">
<title>RMP&#45;&gt;CTO</title>
<path fill="none" stroke="#666666" d="M602.75,-168C592.68,-157.77 581.26,-146.16 571.13,-135.87"/>
<polygon fill="#666666" stroke="#666666" points="573.65,-133.44 564.14,-128.76 568.66,-138.35 573.65,-133.44"/>
</g>
<!-- RMP&#45;&gt;GOP -->
<g id="edge5" class="edge">
<title>RMP&#45;&gt;GOP</title>
<path fill="none" stroke="#666666" d="M657.78,-168C668.1,-157.64 679.8,-145.89 690.14,-135.5"/>
<polygon fill="#666666" stroke="#666666" points="692.28,-138.31 696.85,-128.76 687.31,-133.38 692.28,-138.31"/>
</g>
<!-- RMP&#45;&gt;SOP -->
<g id="edge4" class="edge">
<title>RMP&#45;&gt;SOP</title>
<path fill="none" stroke="#666666" d="M724.11,-168C754.36,-161.82 764.07,-170.46 793.11,-160 809.9,-153.95 826.73,-143.84 840.67,-134.09"/>
<polygon fill="#666666" stroke="#666666" points="842.55,-137.05 848.59,-128.34 838.44,-131.38 842.55,-137.05"/>
</g>
<!-- RMP&#45;&gt;CSecG -->
<g id="edge6" class="edge">
<title>RMP&#45;&gt;CSecG</title>
<path fill="none" stroke="#666666" d="M724.11,-168C761.94,-162.1 1016.9,-171.7 1082.2,-162.31"/>
<polygon fill="#666666" stroke="#666666" points="1082.57,-165.81 1091.63,-160.31 1081.12,-158.96 1082.57,-165.81"/>
</g>
<!-- OMP -->
<g id="node15" class="node">
<title>OMP</title>
<path fill="#e8f0fe" stroke="black" d="M897.2,-217.6C897.2,-217.6 745.03,-217.6 745.03,-217.6 739.03,-217.6 733.03,-211.6 733.03,-205.6 733.03,-205.6 733.03,-188 733.03,-188 733.03,-182 739.03,-176 745.03,-176 745.03,-176 897.2,-176 897.2,-176 903.2,-176 909.2,-182 909.2,-188 909.2,-188 909.2,-205.6 909.2,-205.6 909.2,-211.6 903.2,-217.6 897.2,-217.6"/>
<text text-anchor="middle" x="821.11" y="-201" font-family="Times,serif" font-size="14.00">Robbie Whitehead</text>
<text text-anchor="middle" x="821.11" y="-184.2" font-family="Times,serif" font-size="14.00">Operation Managing Partner</text>
</g>
</g>
</svg>
